<?xml version="1.0" encoding="UTF-8" standalone="no"?>
<!-- Created with Inkscape (http://www.inkscape.org/) -->
<svg id="svg12430" xmlns:rdf="http://www.w3.org/1999/02/22-rdf-syntax-ns#" xmlns="http://www.w3.org/2000/svg" height="16" width="16" version="1.1" xmlns:cc="http://creativecommons.org/ns#" xmlns:xlink="http://www.w3.org/1999/xlink" xmlns:dc="http://purl.org/dc/elements/1.1/">
 <metadata id="metadata12435">
  <rdf:RDF>
   <cc:Work rdf:about="">
    <dc:format>image/svg+xml</dc:format>
    <dc:type rdf:resource="http://purl.org/dc/dcmitype/StillImage"/>
    <dc:title/>
   </cc:Work>
  </rdf:RDF>
 </metadata>
 <g id="layer1" transform="translate(0 -1036.4)">
  <g id="g14642-3-0" transform="translate(-142 638.37)">
   <path id="path13004" style="opacity:.8;color:#bebebe" d="m145.19 400c-0.67 0-1.19 0.55-1.19 1.22v9.5625c0 0.66976 0.5248 1.2188 1.1875 1.2188h9.625c0.6627 0 1.1875-0.54899 1.1875-1.2188v-9.5625c-0.01-0.67-0.53-1.22-1.2-1.22h-9.62zm3.8125 3h2v2h2v2h-2v2h-2v-2h-2v-2h2v-2z" xlink:href="#rect11749-5-0-1-8" transform="translate(0,1)"/>
   <use id="use11960" xlink:href="#path13004" transform="translate(1,-1)" height="16" width="16" y="0" x="0"/>
   <use id="use11962" xlink:href="#use11960" transform="translate(-2)" height="16" width="16" y="0" x="0"/>
   <path id="rect11749-5-0-1-8" style="color:#bebebe;fill:#fff" d="m145.19 400c-0.67 0-1.19 0.55-1.19 1.22v9.5625c0 0.66976 0.5248 1.2188 1.1875 1.2188h9.625c0.6627 0 1.1875-0.54899 1.1875-1.2188v-9.5625c-0.01-0.67-0.53-1.22-1.2-1.22h-9.62zm3.8125 3h2v2h2v2h-2v2h-2v-2h-2v-2h2v-2z"/>
   <rect id="rect3620-5-4" style="fill:none" rx="0" ry="0" height="16" width="15.982" y="398" x="142"/>
  </g>
 </g>
</svg>
