<?xml version="1.0" encoding="UTF-8" standalone="no"?>
<!-- Created with Inkscape (http://www.inkscape.org/) -->
<svg id="svg2857" xmlns:rdf="http://www.w3.org/1999/02/22-rdf-syntax-ns#" xmlns="http://www.w3.org/2000/svg" height="22" width="65" version="1.1" xmlns:cc="http://creativecommons.org/ns#" xmlns:dc="http://purl.org/dc/elements/1.1/">
 <metadata id="metadata2862">
  <rdf:RDF>
   <cc:Work rdf:about="">
    <dc:format>image/svg+xml</dc:format>
    <dc:type rdf:resource="http://purl.org/dc/dcmitype/StillImage"/>
    <dc:title/>
   </cc:Work>
  </rdf:RDF>
 </metadata>
 <g id="layer1" transform="translate(-444.64 -781.36)">
  <g id="g16453" transform="translate(-351.36 708.36)">
   <rect id="rect16256-9-4" style="color:#000000;stroke:#3465a4;stroke-linecap:round;fill:#4a90d9" transform="scale(-1,1)" rx="4" ry="4" height="19" width="63" y="74.5" x="-859.5"/>
   <rect id="rect16258-5-4" style="stroke:#5f5f5f;stroke-linecap:round;stroke-width:2" transform="scale(-1,1)" rx="4" ry="4" height="20" width="31" y="74" x="-860"/>
   <g id="g16298-3-6" transform="matrix(-1 0 0 1 1651.1 -33.986)">
    <path id="path16265-3-5" d="m803.63 115.49v4.295" style="stroke:#5f5f5f;stroke-linecap:round;stroke-width:1px;fill:none"/>
    <path id="path16265-0-2-0" d="m806.63 115.49v4.295" style="stroke:#5f5f5f;stroke-linecap:round;stroke-width:1px;fill:none"/>
    <path id="path16265-8-7-1" d="m809.62 115.49v4.295" style="stroke:#5f5f5f;stroke-linecap:round;stroke-width:1px;fill:none"/>
   </g>
   <g id="text42229-3-0" style="block-progression:tb;text-indent:0;color:#000000;text-transform:none;fill:#fff">
    <path id="path18606" style="fill:#fff" d="m808.01 80.574c0.63283 0.000006 1.1957 0.12395 1.6885 0.37182 0.49284 0.24789 0.88071 0.6095 1.1636 1.0849 0.28287 0.47244 0.42431 1.0222 0.42432 1.6491-0.00001 0.63575-0.13853 1.2-0.41557 1.6929-0.27705 0.48993-0.66637 0.87051-1.168 1.1417-0.50161 0.27121-1.0776 0.40682-1.7279 0.40682-0.4287 0-0.83552-0.06562-1.2205-0.19685-0.38495-0.13415-0.73053-0.32808-1.0367-0.5818-0.3033-0.25663-0.54535-0.58908-0.72615-0.99736-0.1779-0.40828-0.26684-0.86904-0.26684-1.3823 0-0.63866 0.13998-1.2 0.41994-1.6841 0.27996-0.48701 0.66782-0.85884 1.1636-1.1155 0.49576-0.25954 1.063-0.38932 1.7016-0.38932m0.57305 1.0892c-0.20123-0.05249-0.40682-0.07873-0.61679-0.07874-0.20998 0.000005-0.41411 0.02625-0.61242 0.07874-0.19831 0.04958-0.38932 0.12978-0.57304 0.24059-0.18081 0.10791-0.33975 0.24206-0.47681 0.40244-0.13707 0.1604-0.24643 0.3587-0.32808 0.59492-0.0817 0.2333-0.12249 0.4914-0.12249 0.77427 0 0.67366 0.20851 1.2146 0.62554 1.6229 0.41703 0.40828 0.93758 0.61242 1.5617 0.61242 0.25955 0.000001 0.51035-0.04228 0.7524-0.12686 0.24496-0.08457 0.47097-0.20997 0.67803-0.3762 0.20705-0.16622 0.37328-0.39224 0.49868-0.67803s0.1881-0.61096 0.1881-0.97549c0-0.29746-0.0437-0.56867-0.13123-0.81364-0.0875-0.24788-0.20414-0.45348-0.34995-0.61679-0.1429-0.16331-0.31059-0.30183-0.50306-0.41557-0.18956-0.11373-0.38641-0.19538-0.59054-0.24497"/>
    <path id="path18608" style="fill:#fff" d="m813.16 80.64h1.2161l3.4689 4.7768v-4.7768h1.1024v6.216h-1.2292l-3.4558-4.7856v4.7856h-1.1024v-6.216"/>
   </g>
  </g>
 </g>
</svg>
